<?xml version="1.0" encoding="UTF-8" standalone="no"?>
<svg xmlns="http://www.w3.org/2000/svg" xmlns:rdf="http://www.w3.org/1999/02/22-rdf-syntax-ns#" version="1.1" xmlns:cc="http://creativecommons.org/ns#" width="250" xmlns:dc="http://purl.org/dc/elements/1.1/" height="41.559">
 <g transform="translate(-40.525 -860.8)">
  <path d="m40.525 902.36h41.561v-41.559h-41.561v41.559z" fill="#c18f07"/>
  <g fill="#fff">
   <path d="m61.337 868.24 5.0674 2.9203s0.49762 0.23012 0.73008 0.62729c0.20793 0.35744 0.22311 0.7441 0.22311 0.7441v4.5604s0.01869 0.5607-0.14952 0.89479c-0.16354 0.32824-0.35745 0.47777-0.35745 0.47777l-4.6795 2.8012s-0.44623 0.29788-0.83405 0.29788-0.95436-0.29788-0.95436-0.29788l-4.3817-2.5921s-0.19391-0.0607-0.49178-0.41819c-0.29787-0.35862-0.25348-0.98474-0.25348-0.89362v-4.9202s-0.03037-0.29671 0.2091-0.62495c0.30956-0.42637 0.59575-0.53617 0.59575-0.53617l5.2764-3.0406z"/>
   <path d="m48.838 868.45v1.6342h6.1152l2.8351-1.6342h-8.9502z"/>
   <path d="m73.774 868.45h-8.8731l2.8339 1.6342h6.0392v-1.6342z"/>
   <path d="m69.024 873.35h4.7496v-1.6342h-4.766c0.01402 0.097 0.01635 0.15653 0.01635 0.15653v1.4777z"/>
   <path d="m53.589 871.72h-4.7508v1.6342h4.752v-1.591s-0.0012-0.0152-0.0012-0.0432"/>
   <path d="m73.775 874.99h-4.7496v1.633h4.7496v-1.633z"/>
   <path d="m48.839 876.62h4.752v-1.633h-4.752v1.633z"/>
   <path d="m68.378 879.44-0.7476 0.44856h6.1432v-1.6342h-4.7812c-0.02687 0.19624-0.07476 0.40884-0.15887 0.57705-0.20793 0.41819-0.45557 0.6086-0.45557 0.6086"/>
   <path d="m53.913 879.17c-0.22779-0.27334-0.29904-0.67168-0.3189-0.91932h-4.7555v1.6342h6.0077l-0.30605-0.18223s-0.24764-0.0759-0.62729-0.53267"/>
   <path d="m62.161 883.15h11.609c0.0012-0.0584 0.0047-0.11681 0.0047-0.17522v-1.459h-8.8731l-2.4916 1.4917s-0.09929 0.0666-0.24881 0.14251"/>
   <path d="m57.609 881.52h-8.7703v1.459c0 0.0584 0.0035 0.11564 0.0047 0.17522h11.593c-0.18106-0.0771-0.30605-0.14135-0.30605-0.14135l-2.5208-1.4929z"/>
   <path d="m73.176 886.42c0.1869-0.53384 0.33292-1.0794 0.43338-1.6342h-11.471v1.6342h11.038z"/>
   <path d="m49.003 884.79c0.09929 0.55486 0.24531 1.0992 0.43338 1.6342h11.038v-1.6342h-11.471z"/>
   <path d="m50.163 888.06c0.30371 0.56304 0.65532 1.1074 1.0525 1.633h9.2586v-1.633h-10.311z"/>
   <path d="m71.397 889.69c0.39833-0.52566 0.74877-1.0712 1.0537-1.633h-10.312v1.633h9.2586z"/>
   <path d="m52.66 891.32c0.58991 0.57706 1.2359 1.1237 1.9379 1.6342h5.8769v-1.6342h-7.8148z"/>
   <path d="m68.015 892.96c0.70205-0.51047 1.3492-1.0572 1.9379-1.6342h-7.8148v1.6342h5.8769z"/>
   <path d="m57.263 894.59c1.0046 0.51748 2.0793 1.1892 3.2112 1.5758v-1.5758h-3.2112z"/>
   <path d="m65.349 894.59h-3.2112v1.5758c1.1331-0.38665 2.2066-1.0583 3.2112-1.5758"/>
  </g>
  <path d="m83.655 902.36h206.87v-41.557h-206.87v41.557z" fill="#1c1b20"/>
  <g fill="#fff">
   <path d="m231.33 878.94c-0.91231 0-1.9928 0.9053-2.3865 1.3901-0.396 0.4836-1.452 2.168-1.452 2.168v6.6981 0.72541s-0.51515-0.001-0.74877-0.001h-0.53968c-0.46608 0-0.72424-0.28036-0.72424-0.72425v-11.353c0-0.23245-0.001-0.72657-0.001-0.72657h0.72541 0.53968c0.46842 0 0.74877 0.28152 0.74877 0.72657v2.1062l0.1869-0.28036c0.96021-1.4742 2.084-2.5524 3.7439-2.5524h0.0946c0.24297 0 0.43688 0.0841 0.56187 0.23245 0.1063 0.12266 0.16354 0.29204 0.16354 0.49412v0.5023 0.59458h-0.91231z"/>
   <path d="m177.31 883.89c0 4.0266-2.5757 6.2261-6.4142 6.2261-4.002 0-6.3897-2.2241-6.3897-6.2261v-10.791c0-0.44389 0.28152-0.72541 0.72658-0.72541h0.72424 0.74527s0.004 0.50113 0.004 0.72541v10.791c0 3.1131 1.8258 4.3069 4.1901 4.3069 2.3877 0 4.2134-1.195 4.2134-4.3069v-10.791c0-0.44389 0.28035-0.72541 0.72541-0.72541h0.74877 0.72658v0.72541 10.791z"/>
   <path d="m210.06 880.42c0 4.377-2.5746 8.4024-3.8396 9.5028h-2.2008c-1.2861-1.1004-3.6516-5.1258-3.6516-9.5028v-2.5746c0-0.44506 0.25933-0.72658 0.72658-0.72658h0.53851c0.27918 0 0.75111-0.001 0.75111-0.001s-0.002 0.54669-0.002 0.72775v2.5746c0 3.6516 1.4508 6.67 2.8327 8.0286 1.3574-1.3585 2.8316-4.377 2.8316-8.0286v-2.5746c0-0.44506 0.28152-0.72658 0.72541-0.72658h0.53851c0.27217 0 0.74994-0.001 0.74994-0.001v0.72775 2.5746z"/>
   <path d="m217.94 882.6c2.0139 0 2.5746-0.72541 2.5746-1.9905 0-1.3796-0.93684-1.848-2.3877-1.848-2.1996 0-3.4647 1.1004-3.4647 3.6749v0.16354h3.2778zm-5.2905 2.3877v-2.5512c0-3.488 2.3643-5.5007 5.4774-5.5007 2.55 0 4.377 1.1004 4.377 3.6738 0 2.272-1.452 3.6516-4.0032 3.6516h-3.8385v0.72658c0 2.3865 1.4508 3.3011 3.4647 3.3011 1.4508 0 3.6551-0.80484 3.6551-0.80484s-0.002 0.47543-0.002 0.64013v0.51515c0 0.46725-0.0491 0.63079-0.44623 0.81886-0.1869 0.0934-1.7557 0.65532-3.2065 0.65532-3.1131 0-5.4774-1.4742-5.4774-5.1258"/>
   <path d="m235.76 880.61c0 1.1705 0.79667 1.2873 1.8258 1.5454l1.5676 0.3738c1.9893 0.46725 3.557 1.2639 3.557 3.7462 0 2.8316-2.4566 3.8385-5.1246 3.8385-1.5454 0-3.0196-0.28152-3.1843-0.32825-0.2126-0.0537-0.55486-0.1647-0.55486-0.1647s-0.007-0.27101-0.007-0.51398v-0.63196c0-0.37497 0.25816-0.53851 0.5864-0.53851 0.0935 0 0.14018 0 0.23246 0.0234 0.21143 0.0467 1.452 0.32825 2.9273 0.32825 2.0127 0 3.1131-0.56187 3.1131-2.0127 0-1.1016-0.93567-1.5933-2.0139-1.827l-1.9192-0.46842c-1.7323-0.39717-3.0196-1.3796-3.0196-3.3701 0-2.2942 1.9192-3.6749 4.9389-3.6749 1.5688 0 2.6692 0.23479 2.8327 0.25699 0.25699 0.0397 0.5607 0.13433 0.5607 0.13433s0.001 0.3446 0.001 0.54552v0.65532c0 0.3738-0.28152 0.51515-0.60976 0.51515-0.39717 0-1.2628-0.28152-2.7848-0.28152-1.9192 0-2.925 0.56187-2.925 1.8492"/>
   <path d="m268.36 886.63-0.91231 0.91231c-0.93684 0.93684-2.0606 1.6622-3.7228 1.6622-2.1061 0-3.4156-1.1705-3.4156-4.4004v-6.9516c0-0.44506 0.27918-0.72541 0.72424-0.72541h0.56187c0.23479 0 0.72541-0.002 0.72541-0.002v0.72775 6.9516c0 1.9426 0.7955 2.5746 1.9671 2.5746 1.2628 0 2.5968-1.2873 3.3233-2.0127l0.74877-0.74877v-6.7646c0-0.44506 0.25699-0.72541 0.72658-0.72541h0.53734c0.24647 0 0.74877-0.002 0.74877-0.002s0.001 0.51749 0.001 0.72775v10.44c0 4.377-2.5757 6.0392-6.9527 6.0392h-1.4742c-0.23713 0-0.72658-0.002-0.72658-0.002s0.001-0.52916 0.001-0.7476v-0.35044c0-0.46725 0.28035-0.74877 0.72541-0.74877h1.4742c3.4635 0 4.9389-1.077 4.9389-4.0266v-1.8258z"/>
   <path d="m257.34 888.1c0.23129 0 0.41702 0.0759 0.54435 0.21143 0.11681 0.12616 0.18106 0.30138 0.18106 0.51515v0.3738 0.72424s-0.50931 0.002-0.72541 0.002h-1.1004c-2.5512 0-4.2134-1.452-4.2134-4.2146v-10.79c0-0.22078-0.002-0.72424-0.002-0.72424s0.50464-0.001 0.72775-0.001h0.5607c0.44623 0 0.72658 0.28035 0.72658 0.72541v2.2008h2.9273c0.46725 0 0.72541 0.28035 0.72541 0.72424v0.37614c0 0.2418-0.005 0.7219-0.005 0.7219s-0.49763 0.004-0.72074 0.004h-2.9273v6.7635c0 1.4754 0.77214 2.3877 2.2008 2.3877h1.1004z"/>
   <path d="m197.22 873.85c0 0.44623-0.25699 0.72658-0.72658 0.72658h-0.53734c-0.23012 0-0.74994-0.001-0.74994-0.001s0.001-0.49879 0.001-0.72541v-0.7476c0-0.44506 0.28035-0.72658 0.74877-0.72658h0.53734 0.72541s0.001 0.50346 0.001 0.72658v0.7476zm0 15.356c0 0.24063-0.001 0.72307-0.001 0.72307s-0.5093 0.002-0.72541 0.002h-0.53734c-0.46842 0-0.74877-0.28152-0.74877-0.72541v-10.253h-1.4298c-0.49062 0-0.72425-0.25816-0.72425-0.72541v-0.37497-0.72892s0.48595 0.004 0.70205 0.004h2.7381c0.46959 0 0.72658 0.28035 0.72658 0.72541v11.353z"/>
   <path d="m248.75 873.85c0 0.44506-0.25816 0.72658-0.72424 0.72658h-0.54085c-0.23129 0-0.7476-0.001-0.7476-0.001v-0.72541-0.7476c0-0.44506 0.28035-0.72658 0.7476-0.72658h0.54085 0.72307s0.001 0.50346 0.001 0.72658v0.7476zm0 15.356c0 0.24063-0.001 0.72307-0.001 0.72307s-0.51047 0.002-0.72307 0.002h-0.54085c-0.46725 0-0.7476-0.28152-0.7476-0.72541v-10.253h-1.4286c-0.48944 0-0.72424-0.25816-0.72424-0.72541v-0.37497-0.72892s0.48361 0.004 0.70088 0.004h2.7404c0.46608 0 0.72424 0.28035 0.72424 0.72541v11.353z"/>
   <path d="m182.61 879.51 0.91231-0.91348c0.91348-0.91231 2.0139-1.6611 3.6516-1.6611 2.0127 0 3.4647 1.0992 3.4647 4.3992v7.8639 0.72424s-0.50113 0.001-0.72541 0.001h-0.53968c-0.46842 0-0.7476-0.27918-0.7476-0.72541v-7.8639c0-2.0127-0.91348-2.5734-1.9893-2.5734-1.2884 0-2.5757 1.2861-3.3011 2.0127l-0.72541 0.74877v7.6758 0.72541h-0.74877-0.53851c-0.46842 0-0.72541-0.27918-0.72541-0.72541v-11.351-0.72658h0.72541 0.53851c0.46725 0 0.74877 0.28152 0.74877 0.72658v1.6622z"/>
   <path d="m116.72 887.54-0.91231 0.93567c-0.93684 0.91348-2.0127 1.6389-3.6749 1.6389-2.0127 0-3.4623-1.1004-3.4623-4.4004v-7.8627c0-0.44506 0.28035-0.72541 0.72424-0.72541h0.56187c0.23596 0 0.72307-0.004 0.72307-0.004s0.004 0.51982 0.004 0.72892v7.8627c0 2.0127 0.91231 2.5746 2.0115 2.5746 1.2639 0 2.5512-1.2873 3.2766-2.0115l0.74877-0.72658v-7.6992c0-0.44506 0.25699-0.72541 0.72541-0.72541h0.53851c0.23947 0 0.74877-0.001 0.74877-0.001v0.72658 11.351c0 0.44389-0.28035 0.72424-0.74877 0.72424h-0.53851c-0.23129 0-0.72658-0.002-0.72658-0.002s0.001-0.4988 0.001-0.72191v-1.6622z"/>
   <path d="m127.87 878.95c-0.91348 0-1.9928 0.90647-2.3877 1.3889-0.39366 0.4836-1.4508 2.1692-1.4508 2.1692v6.6957 0.72307s-0.51281 0.002-0.74877 0.002h-0.53734c-0.46842 0-0.72658-0.28152-0.72658-0.72541v-12.076l1.2639-0.001c0.46842 0 0.74877 0.28268 0.74877 0.72774v2.105l0.18807-0.28152c0.95904-1.4742 2.0828-2.55 3.7439-2.55h0.0934c0.2418 0 0.43571 0.0841 0.56187 0.23129 0.10513 0.12383 0.16354 0.29204 0.16354 0.49529v0.50113 0.59458h-0.91231z"/>
   <path d="m136.11 888.1c0.23129 0 0.41936 0.0759 0.54435 0.2126 0.11681 0.12265 0.18106 0.29904 0.18106 0.51164v0.37497 0.72308s-0.51047 0.002-0.72541 0.002h-1.1004c-2.55 0-4.2123-1.452-4.2123-4.2134v-10.788-0.72541h0.72541 0.56187c0.44389 0 0.72541 0.28035 0.72541 0.72541v2.1996h2.925c0.46842 0 0.72658 0.28152 0.72658 0.72541v0.37497c0 0.24297-0.005 0.7219-0.005 0.7219s-0.49646 0.004-0.72191 0.004h-2.925v6.7623c0 1.4765 0.77213 2.3888 2.1996 2.3888h1.1004z"/>
   <path d="m142.93 873.85c0 0.44506-0.25699 0.72541-0.72541 0.72541h-0.53851c-0.23129 0-0.74994-0.001-0.74994-0.001s0.001-0.49879 0.001-0.72424v-0.74877c0-0.44506 0.28152-0.72541 0.74877-0.72541h0.53851 0.72424s0.001 0.50346 0.001 0.72541v0.74877zm0 15.353c0 0.23947-0.001 0.72308-0.001 0.72308s-0.5093 0.001-0.72424 0.001h-0.53851c-0.46725 0-0.74877-0.28152-0.74877-0.72424v-10.25h-1.4275c-0.49178 0-0.72541-0.25816-0.72541-0.72658v-0.3738-0.72892s0.48478 0.004 0.70205 0.004h2.7381c0.46842 0 0.72541 0.28152 0.72541 0.72541v11.351z"/>
   <path d="m148.23 879.51 0.91231-0.91231c0.91231-0.91348 2.0127-1.6622 3.6516-1.6622 2.0127 0 3.4623 1.1004 3.4623 4.4004v7.8627c0 0.22896 0.001 0.72308 0.001 0.72308s-0.49996 0.002-0.72658 0.002h-0.53734c-0.46842 0-0.74877-0.28152-0.74877-0.72541v-7.8627c0-2.0139-0.91348-2.5746-1.9893-2.5746-1.2873 0-2.5746 1.2873-3.3 2.0127l-0.72541 0.74877v7.6758c0 0.24064-0.005 0.72308-0.005 0.72308s-0.528 0.002-0.7441 0.002h-0.53851c-0.46842 0-0.72541-0.28152-0.72541-0.72541v-11.351-0.72658s0.47192 0.001 0.72541 0.001h0.53851c0.46725 0 0.74877 0.28152 0.74877 0.72541v1.6622z"/>
   <path d="m103.7 872.36c0.002 0 0.005 0.001 0.008 0.001-0.004 0-0.006-0.001-0.008-0.001"/>
   <path d="m103.71 872.36c0.0315 0.006 0.0631 0.0117 0.0946 0.0175-0.0315-0.006-0.0631-0.0117-0.0946-0.0175"/>
   <path d="m101.52 874.11c0.78498 0 1.4204 0.0666 2.0337 0.19858 0.68569 0.17172 1.2849 0.42403 1.6377 0.54085 0.14017 0.0479 0.23362 0.0701 0.32707 0.0701 0.2348 0 0.39834-0.14018 0.39834-0.46726l0.008-0.76396c0-0.26867 0.001-0.65415 0.001-0.65415s-0.0105-0.005-0.0245-0.0117c-0.0713-0.0315-0.28736-0.12733-0.44506-0.17756-0.25932-0.10046-0.89362-0.31656-1.6599-0.46842-0.0315-0.006-0.0631-0.0117-0.0946-0.0175-0.002 0-0.006-0.001-0.008-0.001-0.27568-0.0514-0.5642-0.0935-0.85974-0.11798-0.0164-0.001-0.0327-0.003-0.0491-0.006h-0.002c-0.2932-0.0269-0.59107-0.0432-0.88778-0.0432-5.1258 0-8.4024 2.7393-8.4024 7.8639v2.1996c0 4.5627 2.3643 7.8639 7.6758 7.8639h1.1004c1.3574 0 2.7615-0.46958 3.1832-0.63196 0.18807-0.0607 0.46959-0.18923 0.46959-0.18923s-0.001-0.38549-0.001-0.65416v-0.58523c0-0.32708-0.16471-0.46842-0.39833-0.46842-0.0946 0-0.1869 0.0245-0.32825 0.0701-0.56187 0.18807-1.7545 0.53967-2.925 0.53967h-1.1004c-3.4869 0-5.4984-2.1061-5.4984-5.9446v-2.1996c0-4.2824 2.5734-5.9446 5.85-5.9446"/>
  </g>
 </g>
</svg>
